<svg width="16" height="16" viewBox="0 0 16 16" fill="none" xmlns="http://www.w3.org/2000/svg">
  <path d="M0.196066 9.84364C0.160465 9.69188 0.341263 9.5963 0.451486 9.70652L6.29348 15.5485C6.4037 15.6587 6.30811 15.8395 6.15635 15.8039C3.20824 15.1124 0.887647 12.7918 0.196066 9.84364Z" fill="white"/>
  <path d="M0.000302617 7.50226C-0.00252039 7.54759 0.0145222 7.59184 0.0466342 7.62395L8.37605 15.9534C8.40816 15.9855 8.45241 16.0025 8.49774 15.9997C8.87682 15.9761 9.24875 15.9261 9.61173 15.8516C9.73404 15.8264 9.77654 15.6761 9.68825 15.5878L0.412151 6.31175C0.323855 6.22346 0.173565 6.26596 0.148444 6.38827C0.0738978 6.75125 0.0239129 7.12318 0.000302617 7.50226Z" fill="white"/>
  <path d="M0.673749 4.75287C0.647111 4.81267 0.660679 4.88256 0.706973 4.92886L11.0711 15.293C11.1174 15.3393 11.1873 15.3529 11.2471 15.3263C11.5329 15.199 11.8099 15.0554 12.0768 14.8968C12.1651 14.8443 12.1788 14.7229 12.1061 14.6503L1.34971 3.89387C1.27705 3.82122 1.15567 3.83485 1.10319 3.92319C0.944576 4.19013 0.801039 4.46708 0.673749 4.75287Z" fill="white"/>
  <path d="M2.0254 2.89185C1.96618 2.83263 1.96251 2.73764 2.0183 2.67518C3.48473 1.03349 5.61782 0 7.99231 0C12.4148 0 16 3.58517 16 8.00769C16 10.3822 14.9665 12.5153 13.3248 13.9817C13.2624 14.0375 13.1674 14.0338 13.1082 13.9746L2.0254 2.89185Z" fill="white"/>
</svg>